<svg xmlns="http://www.w3.org/2000/svg" viewBox="0 0 1500 1500" width="1500" height="1500"><g transform="translate(183.0 225.0) rotate(0.0 615.0 523.5) scale(1.0046926498156021 1.003847603086136)"><svg width="1224.255" height="1042.987" viewBox="0 0 1224.255 1042.987"><path d="M710.418 0C316.135 0-45.411 314.885 4.657 700.316 14.36 775.01 27.36 894.294 110.999 924.349c111.223 39.966 236.394-21.536 290.523-9.587 186.512 41.172 206.269 128.226 435.683 128.226 209.697 0 387.05-256.838 387.05-509.21S1024.17 0 710.418 0z" fill="#fece2f"/></svg></g><g transform="translate(203.0 268.0) rotate(0.0 536.0 498.0) scale(1.0035151112338463 1.0050362812043079)"><svg width="1068.245" height="991.009" viewBox="0 0 1068.245 991.009"><path d="m431.586 157.209-50.571-4.789A256.925 256.925 0 0 0 395.259 2a750.656 750.656 0 0 1 29.455 30.059 501.376 501.376 0 0 0 21.117-25.27 256.925 256.925 0 0 1-14.245 150.42z" fill="#fece2f"/><path d="M431.588 159.21c-.063 0-.126-.003-.189-.009l-50.571-4.789a2 2 0 0 1-1.659-2.757c19.642-47.397 24.529-99.008 14.133-149.25a2 2 0 0 1 3.347-1.844 757.928 757.928 0 0 1 28.032 28.523 499.644 499.644 0 0 0 19.573-23.526 1.988 1.988 0 0 1 2.031-.717 1.998 1.998 0 0 1 1.504 1.542c10.559 51.03 5.595 103.45-14.355 151.592a2 2 0 0 1-1.846 1.235zm-47.703-8.527 46.415 4.396c18.629-45.687 23.59-95.223 14.413-143.64a509.04 509.04 0 0 1-18.507 21.951c-.375.421-.91.664-1.474.669h-.019a1.998 1.998 0 0 1-1.468-.642 749.545 749.545 0 0 0-24.806-25.53c8.744 48.152 3.744 97.326-14.554 142.796z" fill="#1a1a1a"/><path d="m667.402 82.134-70.714 38.091a128.456 128.456 0 0 1-32.15-59.685 856.401 856.401 0 0 0 43.312 4.614 893.822 893.822 0 0 1 27.401-42.705 128.476 128.476 0 0 0 32.151 59.685z" fill="#fece2f"/><path d="M596.689 122.224a2.001 2.001 0 0 1-1.449-.62 130.548 130.548 0 0 1-32.651-60.615 2.001 2.001 0 0 1 2.212-2.433 856.14 856.14 0 0 0 41.977 4.502A899.211 899.211 0 0 1 633.6 21.322a2.016 2.016 0 0 1 2.022-.839 2 2 0 0 1 1.579 1.516 126.533 126.533 0 0 0 31.649 58.755 2.001 2.001 0 0 1-.5 3.14l-70.713 38.091a1.997 1.997 0 0 1-.948.239zM567.171 62.9a126.557 126.557 0 0 0 29.922 54.835l67.078-36.133a130.563 130.563 0 0 1-29.776-54.328 893.65 893.65 0 0 0-24.83 38.91 2.007 2.007 0 0 1-1.875.962 862.289 862.289 0 0 1-40.519-4.246z" fill="#1a1a1a"/><path d="M659.255 880.693V726.382H425.381v154.311c0 23.882-8.117 47.054-23.02 65.715l-19.103 23.92h318.12l-19.102-23.92a105.3 105.3 0 0 1-23.021-65.715z" fill="#fece2f"/><path d="M701.378 972.328h-318.12a1.998 1.998 0 0 1-1.562-3.248l19.103-23.92c14.563-18.234 22.583-41.129 22.583-64.467V726.381a2 2 0 0 1 2-2h233.874a2 2 0 0 1 2 2v154.312c0 23.338 8.02 46.232 22.583 64.467l19.103 23.92a2 2 0 0 1-1.564 3.248zm-313.963-4h309.806l-16.509-20.672c-15.127-18.94-23.458-42.722-23.458-66.963V728.381H427.381v152.312c0 24.241-8.331 48.022-23.458 66.963z" fill="#1a1a1a"/><path d="M695.372 989.009H389.263c-8.5 0-15.391-6.891-15.391-15.391v-1.634c0-8.5 6.891-15.391 15.391-15.391h306.109c8.5 0 15.391 6.891 15.391 15.391v1.634c.001 8.5-6.89 15.391-15.391 15.391z" fill="#fece2f"/><path d="M694.556 980.218H390.08c-7.426 0-13.671-5-15.589-11.813-.394 1.4-.62 2.87-.62 4.396 0 8.952 7.257 16.208 16.208 16.208h304.476c8.951 0 16.208-7.256 16.208-16.208 0-1.526-.226-2.996-.619-4.396-1.918 6.813-8.162 11.813-15.588 11.813z" fill="#fff"/><path d="M695.372 991.008H389.263c-9.59 0-17.391-7.802-17.391-17.391v-1.634c0-9.59 7.802-17.392 17.391-17.392h306.109c9.59 0 17.391 7.802 17.391 17.392v1.634c.001 9.59-7.801 17.391-17.391 17.391zm-306.109-32.416c-7.384 0-13.391 6.008-13.391 13.392v1.634c0 7.384 6.007 13.391 13.391 13.391h306.109c7.384 0 13.391-6.007 13.391-13.391v-1.634c0-7.384-6.007-13.392-13.391-13.392zm36.118-183.191c53.386 4.962 56.723 20.656 87.588 25.977 35.85 6.181 47.053-13.854 74.997-1.648 35.85 15.659 33.79 70.052 71.288 67.58V726.382H425.381z" fill="#1a1a1a"/><path d="M656.774 869.393c-19.837.001-28.605-15.689-37.866-32.261-7.889-14.117-16.047-28.714-31.742-35.569-14.156-6.183-23.876-3.711-35.132-.85-10.36 2.634-22.102 5.62-39.405 2.636-12.75-2.198-20.926-6.139-29.583-10.311-12.374-5.964-26.399-12.723-57.851-15.646a2 2 0 0 1-1.815-1.991v-49.02a2 2 0 0 1 2-2h233.874a2 2 0 0 1 2 2V867.31a2 2 0 0 1-1.868 1.996 39.53 39.53 0 0 1-2.612.087zm-86.799-75.672c5.638 0 11.734 1.094 18.791 4.176 16.929 7.395 25.803 23.273 33.633 37.283 9.104 16.29 17.003 30.434 34.855 30.208V728.381H427.381v45.203c30.901 3.078 44.965 9.856 57.403 15.851 8.396 4.047 16.328 7.869 28.525 9.973 16.462 2.836 27.766-.036 37.739-2.571 6.218-1.582 12.252-3.116 18.927-3.116z" fill="#1a1a1a"/><path d="M975.618 167.612h-866.6c-26.51 0-48 21.49-48 48v511.789c0 26.51 21.49 48 48 48h866.6c26.51 0 48-21.49 48-48V215.612c0-26.51-21.49-48-48-48z" fill="#fff"/><path d="M975.618 777.401h-866.6c-27.57 0-50-22.43-50-50V215.612c0-27.57 22.43-50 50-50h866.6c27.57 0 50 22.43 50 50v511.789c0 27.57-22.43 50-50 50zm-866.6-607.789c-25.365 0-46 20.636-46 46v511.789c0 25.364 20.635 46 46 46h866.6c25.365 0 46-20.636 46-46V215.612c0-25.364-20.635-46-46-46z" fill="#1a1a1a"/><path d="M119.028 582.98h851.341v100.546H119.028z" fill="#1a1a1a"/><path d="M970.369 685.526H119.028a2 2 0 0 1-2-2V582.98a2 2 0 0 1 2-2h851.341a2 2 0 0 1 2 2v100.546a2 2 0 0 1-2 2zm-849.341-4h847.341V584.98H121.028z" fill="#1a1a1a"/><path d="M542.318 167.612c-173.648-66.435-275.127 0-443.252 0v515.914c175.543 0 271.327-61.811 443.252 0z" fill="#fff"/><path d="M99.066 685.526a2 2 0 0 1-2-2V167.612a2 2 0 0 1 2-2c58.351 0 108.424-7.988 156.849-15.713 89.173-14.224 173.401-27.659 287.118 15.845a2 2 0 0 1 1.285 1.868v515.914a1.999 1.999 0 0 1-2.677 1.882c-110.751-39.816-188.865-28.249-279.312-14.857-49.722 7.362-101.137 14.975-163.263 14.975zm2-515.917v511.914c60.939-.161 111.634-7.668 160.677-14.93 90.254-13.363 168.294-24.92 278.575 14.096V168.99c-50.976-19.354-98.56-28.537-149.639-28.894-45.906-.313-88.765 6.516-134.134 13.753-48.027 7.661-97.666 15.581-155.479 15.76z" fill="#1a1a1a"/><path d="m165.409 593.511-.824 57.366s200.038-63.776 377.733 32.649v-85.711z" fill="#1a1a1a"/><path d="M542.318 685.526c-.328 0-.656-.08-.954-.242-40.32-21.879-85.169-37.206-133.301-45.556-38.536-6.685-79.254-8.94-121.02-6.695-56.944 3.056-104.605 14.255-121.85 19.749a1.999 1.999 0 0 1-2.607-1.934l.824-57.365c.016-1.104.925-1.997 2.023-1.972l376.909 4.304a2 2 0 0 1 1.977 2v85.711a2 2 0 0 1-2.001 2zM318.13 628.193c31.092 0 61.429 2.536 90.544 7.582 47.418 8.218 91.689 23.152 131.644 44.406v-80.389l-372.937-4.259-.756 52.645c11.297-3.282 57.707-15.773 120.084-19.134a585.283 585.283 0 0 1 31.421-.851z" fill="#1a1a1a"/><path d="M1005.578 180.968v502.558c-175.543 0-294.815-39.559-463.26 0V167.612c173.391-39.147 215.147 0 383.273 0h47.48s29.806 7.345 32.507 13.356z" fill="#fff"/><path d="M1005.578 685.526c-61.159 0-115.167-4.766-167.396-9.374-95.588-8.435-185.876-16.402-295.407 9.321a1.998 1.998 0 0 1-2.457-1.947V167.612a2 2 0 0 1 1.56-1.951c110.368-24.917 166.551-18.328 237.68-9.985 39.71 4.657 84.718 9.937 146.033 9.937h47.48c14.03 0 31.036 7.2 34.332 14.537.116.258.176.537.176.819v502.558a2.001 2.001 0 0 1-2.001 1.999zm-307.015-21.533c47.333 0 93.007 4.03 139.971 8.175 51.574 4.551 104.88 9.255 165.044 9.356V181.44c-2.681-4.808-16.923-11.828-30.508-11.828h-47.48c-61.548 0-106.68-5.294-146.499-9.964-70.413-8.257-126.103-14.789-234.774 9.563v511.795c55.256-12.757 105.627-17.013 154.246-17.013z" fill="#1a1a1a"/><path d="M542.318 683.526c62.955-55.492 177.626-121.424 433.271-68.129v40.658s-242.299-80.767-433.271 27.471z" fill="#1a1a1a"/><path d="M542.319 685.526a2 2 0 0 1-1.324-3.5c18.904-16.664 38.091-30.336 58.656-41.798 26.156-14.577 55.282-25.85 86.567-33.505 78.629-19.236 176.124-16.978 289.778 6.716a2 2 0 0 1 1.592 1.958v40.657a1.998 1.998 0 0 1-2.633 1.897c-.604-.201-61.392-20.21-144.651-26.765-48.861-3.849-95.789-2.377-139.479 4.37-54.557 8.425-104.19 25.149-147.522 49.709a1.974 1.974 0 0 1-.984.261zm260.622-87.722c-42.203 0-80.868 4.266-115.771 12.805-61.198 14.973-101.759 40.517-128.906 62.134 39.611-19.907 83.926-33.729 132.014-41.148 44.01-6.791 91.263-8.267 140.447-4.387 73.941 5.833 130.288 22.225 142.864 26.115v-36.299c-61.887-12.81-118.924-19.22-170.648-19.22z" fill="#1a1a1a"/><path d="M1023.618 683.526h-962.6v43.875c0 26.51 21.49 48 48 48h866.6c26.51 0 48-21.49 48-48z" fill="#fece2f"/><path d="M973.07 766.015H111.565c-27.917 0-50.547-22.631-50.547-50.547v9.386c0 27.917 22.631 50.547 50.547 50.547H973.07c27.917 0 50.547-22.631 50.547-50.547v-9.386c.001 27.916-22.63 50.547-50.547 50.547z" fill="#fff"/><path d="M975.618 777.401h-866.6c-27.57 0-50-22.43-50-50v-43.875a2 2 0 0 1 2-2h962.6a2 2 0 0 1 2 2v43.875c0 27.57-22.43 50-50 50zm-912.6-91.875v41.875c0 25.364 20.635 46 46 46h866.6c25.365 0 46-20.636 46-46v-41.875zm23.045-246.419a2 2 0 0 1-2-2v-50.272a2 2 0 0 1 4 0v50.272a2 2 0 0 1-2 2zm0-77.47a2 2 0 0 1-2-2V174.513a2 2 0 0 1 4 0v185.124a2 2 0 0 1-2 2z" fill="#1a1a1a"/><path d="M73.7 685.526a2 2 0 0 1-2-2V413.207a2 2 0 0 1 4 0v270.319a2 2 0 0 1-2 2z" fill="#1a1a1a"/><path d="M542.318 167.608v515.921c-128.422-74.021-268.154-93.06-413.521-75.084-3.528.432-7.056.884-10.594 1.369V93.893a785.08 785.08 0 0 1 12.342-1.727c164.901-22.041 282.488 6.929 411.773 75.442z" fill="#fff"/><path d="M126.47 525.758c.074 13.922 5.223 27.053 3.791 40.775-.632 6.087-2.538 11.615-3.18 17.702-.842 7.909.453 16.133 1.717 24.21-3.528.432-7.056.884-10.594 1.369V93.893a785.08 785.08 0 0 1 12.342-1.727c-.642 16.112 1.717 32.245.8 48.336-.769 13.51-3.823 26.653-3.507 40.196.337 14.553 4.56 28.138 4.602 42.723.053 14.954-4.297 29.307-4.002 44.24.232 11.394 3.17 22.504 2.159 33.793-.611 6.729-2.591 12.931-3.064 19.692-.663 9.541 1.738 18.724 2.822 28.096 3.791 32.624-8.34 67.597-2.559 99.231 1.674 9.183 4.823 17.597 5.329 27.243.884 17.144-6.75 32.814-6.656 50.042z" fill="#fece2f"/><path d="M542.318 685.526c-.345 0-.69-.089-.999-.268-63.222-36.44-132.115-60.88-204.767-72.638-67.835-10.978-141.207-11.258-218.079-.828a1.998 1.998 0 0 1-2.269-1.982V93.897a2 2 0 0 1 1.709-1.979c83.686-12.294 158.043-11.935 227.319 1.097 64.098 12.059 127.021 35.2 198.022 72.829a2.001 2.001 0 0 1 1.063 1.768v515.914a2 2 0 0 1-1.999 2zm-314.244-85.352c37.65 0 74.109 2.832 109.117 8.498 71.985 11.649 140.306 35.668 203.127 71.403v-511.26c-70.201-37.104-132.453-59.947-195.825-71.869-68.362-12.86-141.743-13.295-224.289-1.32v511.897c36.831-4.899 72.863-7.349 107.87-7.349z" fill="#1a1a1a"/><path d="M542.318 167.612C647.717 95.505 808.425 67.89 986.44 127.595v515.914c-124.858-44.046-294.219-48.991-444.122 40.017z" fill="#fff"/><path d="M542.318 685.526a1.999 1.999 0 0 1-2-2V167.612c0-.66.326-1.278.871-1.65 54.74-37.45 122.424-61.577 195.737-69.775 80.695-9.021 164.858.907 250.15 29.513a2 2 0 0 1 1.364 1.896V643.51a2 2 0 0 1-2.666 1.886c-66.85-23.582-140.123-33.889-211.89-29.775-83.178 4.755-160.745 28.181-230.546 69.626a2.008 2.008 0 0 1-1.02.279zm2-516.858v511.357c69.573-40.668 146.711-63.677 229.339-68.4 71.341-4.074 144.158 5.971 210.783 29.065V129.036c-84.269-28.069-167.387-37.785-247.07-28.874-72.274 8.081-139.005 31.765-193.052 68.506z" fill="#1a1a1a"/><path d="M542.318 683.526c48.121-60.987 206.357-134.61 355.252-79.667v-96.7l-355.252 78.019z" fill="#1a1a1a"/><path d="M542.318 685.526a2 2 0 0 1-2-2v-98.348a2 2 0 0 1 1.571-1.953l355.252-78.02a2.002 2.002 0 0 1 2.429 1.954v96.7a2.002 2.002 0 0 1-2.692 1.876c-83.613-30.853-162.607-18.986-214.152-3.6-58.518 17.47-113.015 49.903-138.837 82.63a2.007 2.007 0 0 1-1.571.761zm2-2h.01zm0-96.739v91.173c27.755-32.238 79.667-62.463 137.263-79.657 51.574-15.396 130.343-27.299 213.989 2.701v-91.357z" fill="#1a1a1a"/><path d="M918.444 78.602v515.921c-87.089-51.569-263.416-40.469-355.907 62.858a227.916 227.916 0 0 0-20.219 26.148V167.608c5.329-11.563 12.047-22.515 19.966-32.772v-.01C631.935 44.577 794.129 7.93 918.444 78.602z" fill="#fff"/><path d="M572.415 286.268c-3.696 24.557 7.15 48.052 11.015 72.409 3.602 22.704 1.074 46.398-1.474 69.503-1.896 17.239-3.886 34.889-10.11 50.242-4.623 11.405-11.657 21.946-12.247 34.847-1.264 27.453 26.969 46.977 22.167 73.799-2.011 11.268-9.467 19.229-13.606 29.433-4.865 12.005-5.065 26.706-5.623 40.88a227.916 227.916 0 0 0-20.219 26.148V167.608c5.329-11.563 12.047-22.515 19.966-32.772-3.338 13.206 2.675 27.885 9.362 36.911 8.256 11.131 19.019 20.619 21.999 35.899 2.664 13.669-1.79 28.128-7.182 40.438s-11.942 24.231-14.048 38.184z" fill="#fece2f"/><path d="M542.318 685.526a2 2 0 0 1-2-2V167.612c0-.289.063-.575.184-.837 23.294-50.529 74.089-91.541 139.36-112.519 37.986-12.207 79.254-16.97 119.343-13.791 43.352 3.446 83.803 15.692 120.231 36.4a2 2 0 0 1 1.012 1.738v515.914c0 .719-.385 1.382-1.01 1.737a1.996 1.996 0 0 1-2.01-.017c-46.901-27.769-119.809-36.91-190.27-23.86-79.967 14.813-145.019 54.679-183.174 112.252a1.994 1.994 0 0 1-1.666.897zm2-517.474v509.004c39.18-55.595 103.573-94.062 182.112-108.61 69.882-12.943 142.255-4.268 190.018 22.608V79.77c-35.651-20.068-75.198-31.95-117.56-35.316-39.573-3.15-80.309 1.562-117.802 13.611-64.035 20.58-113.857 60.654-136.768 109.987z" fill="#1a1a1a"/><circle cx="542.924" cy="728.952" fill="#fece2f" r="21.334"/><path d="M542.924 752.287c-12.866 0-23.334-10.468-23.334-23.334 0-12.867 10.468-23.335 23.334-23.335s23.334 10.468 23.334 23.335c0 12.866-10.468 23.334-23.334 23.334zm0-42.669c-10.661 0-19.334 8.674-19.334 19.335s8.673 19.334 19.334 19.334 19.334-8.673 19.334-19.334-8.673-19.335-19.334-19.335z" fill="#1a1a1a"/><path d="M542.924 707.618a21.266 21.266 0 0 0-15.066 6.231 21.249 21.249 0 0 1 7.236-1.285c11.783 0 21.334 9.552 21.334 21.334a21.268 21.268 0 0 1-6.269 15.104c8.215-2.967 14.098-10.81 14.098-20.049.001-11.783-9.551-21.335-21.333-21.335z" fill="#1a1a1a"/><path d="M550.161 751.002a2 2 0 0 1-1.413-3.416 19.207 19.207 0 0 0 5.681-13.688c0-10.661-8.673-19.334-19.334-19.334a19.31 19.31 0 0 0-6.558 1.166 2 2 0 0 1-2.091-3.297 23.182 23.182 0 0 1 16.478-6.814c12.866 0 23.334 10.468 23.334 23.334 0 9.786-6.196 18.6-15.419 21.931a2.025 2.025 0 0 1-.678.118zm-13.413-40.381c12.098.852 21.68 10.966 21.68 23.276 0 2.921-.533 5.761-1.554 8.406 3.375-3.526 5.383-8.281 5.383-13.352 0-10.661-8.673-19.334-19.334-19.334-2.131.001-4.21.344-6.175 1.004zm-43.515-436.537c-.282 0-.568-.06-.841-.186l-.399-.195c-31.252-15.312-73.789-34.518-126.196-47.435a1.998 1.998 0 0 1-1.463-2.42 1.994 1.994 0 0 1 2.42-1.463c52.777 13.007 95.567 32.325 126.949 47.702.044.02.138.065.232.112l.141.069a2 2 0 0 1-.843 3.816zm0 74.167c-.295 0-.595-.065-.879-.204-31.377-15.375-74.119-34.681-126.557-47.601a2 2 0 0 1 .957-3.885c52.808 13.012 95.802 32.43 127.36 47.894a2 2 0 0 1-.881 3.796zm.001 74.178c-.296 0-.596-.065-.879-.204-33.159-16.256-78.381-36.566-134.226-49.441-59.452-13.705-121.545-17.17-189.825-10.588a1.996 1.996 0 0 1-2.183-1.8 2 2 0 0 1 1.799-2.183c68.717-6.622 131.229-3.132 191.107 10.673 56.243 12.966 101.737 33.396 135.089 49.747a2.001 2.001 0 0 1-.882 3.796zm0 74.173c-.296 0-.596-.065-.879-.204-33.159-16.256-78.381-36.566-134.226-49.441-59.452-13.704-121.545-17.169-189.825-10.588a2.002 2.002 0 0 1-.384-3.983c68.717-6.623 131.229-3.131 191.107 10.673 56.243 12.966 101.737 33.396 135.089 49.747a2.001 2.001 0 0 1-.882 3.796zm0 74.173c-.296 0-.596-.065-.879-.204-33.159-16.256-78.383-36.566-134.226-49.44-59.452-13.706-121.544-17.172-189.825-10.589a2 2 0 0 1-.384-3.983c68.717-6.621 131.228-3.132 191.107 10.673 56.241 12.966 101.737 33.396 135.089 49.747a2.001 2.001 0 0 1-.882 3.796z" fill="#1a1a1a"/><path d="M330.672 142.755v148.273c-46.598-8.13-100.453-11.026-162.974-5.002V137.69c46.24-4.454 87.521-4.033 124.736-.221a535.235 535.235 0 0 1 38.238 5.286z" fill="#fece2f"/><g fill="#1a1a1a"><path d="M330.672 293.028c-.114 0-.229-.01-.344-.029-50.552-8.821-105.203-10.498-162.438-4.981-.563.046-1.119-.132-1.536-.511s-.655-.917-.655-1.48V137.69a2 2 0 0 1 1.808-1.991c43.52-4.193 85.62-4.268 125.132-.22a539.64 539.64 0 0 1 38.378 5.307 1.999 1.999 0 0 1 1.655 1.97v148.272a2 2 0 0 1-2 2zm-98.089-12.186c33.285 0 65.422 2.607 96.088 7.812V144.438a536.868 536.868 0 0 0-36.44-4.98c-38.704-3.963-79.918-3.947-122.534.052v144.318c21.345-1.992 42.336-2.986 62.886-2.986zm359.228-99.345a2.001 2.001 0 0 1-1.737-2.99c40.656-71.405 168.885-116.923 279.642-70.961a2.001 2.001 0 0 1-1.533 3.695c-108.889-45.188-234.801-.712-274.633 69.244a1.998 1.998 0 0 1-1.739 1.012z"/><path d="M591.811 181.497a2.001 2.001 0 0 1-1.737-2.99c40.656-71.405 168.885-116.923 279.642-70.961a2.001 2.001 0 0 1-1.533 3.695c-108.889-45.188-234.801-.712-274.633 69.244a1.998 1.998 0 0 1-1.739 1.012zm-.001 81.59a2.001 2.001 0 0 1-1.737-2.99c40.659-71.407 168.891-116.92 279.647-70.961a2.001 2.001 0 0 1-1.533 3.695c-108.888-45.188-234.804-.714-274.637 69.244a1.999 1.999 0 0 1-1.74 1.012zm.001 81.594a2 2 0 0 1-1.736-2.99c20.048-35.208 62.497-64.929 113.552-79.504a2 2 0 0 1 1.098 3.846c-50.072 14.295-91.632 43.318-111.174 77.637a2 2 0 0 1-1.74 1.011zm0 81.581a2.001 2.001 0 0 1-1.736-2.991c20.051-35.201 62.5-64.918 113.552-79.491a1.992 1.992 0 0 1 2.472 1.374 2 2 0 0 1-1.374 2.472c-50.069 14.293-91.629 43.312-111.174 77.626a1.999 1.999 0 0 1-1.74 1.01zm0 81.593a2.001 2.001 0 0 1-1.736-2.991c20.054-35.209 62.503-64.93 113.552-79.503a1.994 1.994 0 0 1 2.472 1.374 2 2 0 0 1-1.374 2.472c-50.065 14.293-91.626 43.316-111.174 77.638a1.999 1.999 0 0 1-1.74 1.01zM868.95 272.578v250.768c-45.103-10.099-89.101-10.457-129.338-4.981v-261.72c41.638-5.771 86.752-1.738 129.338 15.933z"/><path d="M868.95 525.346c-.146 0-.292-.016-.437-.048-41.393-9.269-84.671-10.935-128.632-4.952a2.002 2.002 0 0 1-2.27-1.982v-261.72a2 2 0 0 1 1.726-1.981c44.949-6.226 90.034-.673 130.379 16.066a2.002 2.002 0 0 1 1.234 1.848v250.769a2.003 2.003 0 0 1-2 2zm-77.814-12.511c25.756 0 51.11 2.678 75.814 8.023v-246.94c-38.855-15.859-82.126-21.219-125.339-15.524v257.688c16.627-2.166 33.158-3.247 49.525-3.247z"/></g><path d="M12.531 352.656c28.325-17.577 58.21-27.406 86.535-29.486v-32.966c-28.325 2.08-58.21 11.909-86.535 29.486z" fill="#fece2f"/><path d="M12.531 354.656a1.998 1.998 0 0 1-2-2V319.69c0-.691.358-1.335.945-1.699 27.932-17.334 58.169-27.632 87.443-29.781a2 2 0 0 1 2.147 1.994v32.966a2 2 0 0 1-1.854 1.994c-28.634 2.104-58.243 12.198-85.627 29.191-.322.2-.688.301-1.054.301zm2-33.85v28.288c26.479-15.852 54.906-25.421 82.535-27.772v-28.951c-27.634 2.41-56.099 12.213-82.535 28.435z" fill="#1a1a1a"/><path d="M1066.245 323.719c-39.209-15.904-79.478-24.329-118.687-25.274v-32.966c39.209.945 79.478 9.369 118.687 25.274z" fill="#fece2f"/><path d="M1066.244 325.719a2.02 2.02 0 0 1-.751-.146c-38.757-15.721-78.452-24.176-117.984-25.129a1.999 1.999 0 0 1-1.952-1.999V265.48c0-.539.217-1.055.603-1.431.385-.376.896-.599 1.445-.568 40.016.963 80.184 9.516 119.391 25.419a2 2 0 0 1 1.248 1.854v32.966a2.001 2.001 0 0 1-2 1.999zm-116.687-29.22c38.436 1.163 76.992 9.321 114.687 24.264v-28.659c-37.691-15.129-76.259-23.391-114.687-24.567z" fill="#1a1a1a"/><path d="M2 556.585c23.469-16.249 48.231-26.077 71.7-29.486v-32.966c-23.469 3.41-48.231 13.238-71.7 29.487z" fill="#fece2f"/><path d="M2 558.586a1.999 1.999 0 0 1-2-2V523.62c0-.656.322-1.271.862-1.645 23.059-15.964 48.147-26.276 72.551-29.821a2 2 0 0 1 2.287 1.98V527.1a2 2 0 0 1-1.713 1.979C50.19 532.536 25.69 542.616 3.138 558.23c-.34.235-.738.356-1.138.356zm2-33.916v28.141c21.642-14.392 44.939-23.835 67.7-27.432v-28.914C48.928 500.171 25.591 509.889 4 524.67zm326.672-381.915v148.273c-46.598-8.13-100.453-11.026-162.974-5.002 0-35.949-3.734-12.011 14.374-11.721 19.998.314 31.691-22.521 42.386-33.846 25.013-26.488 40.754-2.319 59.309-5.571 10.552-1.833 17.776-12.489 19.092-23.115 3.14-25.547-19.487-47.93-10.425-74.305a535.797 535.797 0 0 1 38.238 5.287z" fill="#1a1a1a"/><path d="M330.672 293.028c-.114 0-.229-.01-.344-.029-50.552-8.821-105.203-10.498-162.438-4.981-.562.047-1.119-.132-1.536-.511s-.655-.917-.655-1.48c0-7.087-.144-11.787-.24-14.897-.157-5.111-.189-6.175 1.471-6.773 1.551-.558 2.508.669 3.277 1.658 1.562 2.005 4.811 6.179 11.898 6.292l.375.003c14.154 0 23.997-12.612 32.692-23.753 2.717-3.48 5.283-6.769 7.833-9.469 17.275-18.295 30.798-13.52 42.73-9.305 6.069 2.143 11.801 4.164 17.688 3.137 9.933-1.725 16.297-12.066 17.452-21.391 1.35-10.986-2.238-21.283-6.037-32.185-4.68-13.43-9.52-27.316-4.295-42.524a1.984 1.984 0 0 1 2.094-1.34 540.273 540.273 0 0 1 38.38 5.307 1.999 1.999 0 0 1 1.655 1.97v148.272a2 2 0 0 1-2 1.999zm-98.089-12.186c33.285 0 65.422 2.607 96.089 7.812V144.438a535.521 535.521 0 0 0-34.829-4.813c-3.972 13.31.28 25.512 4.772 38.402 3.783 10.854 7.694 22.078 6.23 33.991-1.336 10.788-8.888 22.783-20.735 24.841-6.916 1.213-13.419-1.085-19.708-3.306-11.828-4.176-23.001-8.123-38.49 8.279-2.421 2.563-4.931 5.779-7.588 9.184-8.883 11.381-19.944 25.517-36.283 25.289-6.228-.1-10.155-2.709-12.578-5.07.086 2.793.205 6.813.23 12.593 21.344-1.991 42.34-2.986 62.89-2.986z" fill="#1a1a1a"/><path d="M868.95 272.578v173.283c-9.594-6.718-16.986-17.218-20.714-28.464-12.827-38.699 9.601-73.493-7.129-85.762-7.077-5.182-17.449-2.117-24.063 3.633-6.624 5.75-10.962 13.68-17.049 19.998-16.149 16.764-36.317 9.66-35.804-17.86.179-10.173 2.032-21.03-2.78-29.992-4.128-7.688-13.142-12.427-21.799-11.574v-39.196c41.638-5.77 86.752-1.737 129.338 15.934z" fill="#fece2f"/><path d="M868.95 447.861c-.403 0-.805-.122-1.147-.361-9.68-6.779-17.504-17.522-21.465-29.474-6.507-19.633-4.136-38.316-2.23-53.328 1.841-14.507 3.296-25.966-4.184-31.451-6.239-4.568-15.573-1.684-21.567 3.53-3.622 3.144-6.51 6.939-9.568 10.958-2.289 3.008-4.656 6.117-7.353 8.918-8.218 8.53-17.934 11.629-25.989 8.295-4.109-1.701-13.625-7.795-13.256-27.579.036-2.062.142-4.176.243-6.22.394-7.919.802-16.107-2.786-22.789-3.749-6.982-11.91-11.299-19.84-10.529a2.008 2.008 0 0 1-1.539-.508 2.004 2.004 0 0 1-.657-1.482v-39.195a2 2 0 0 1 1.725-1.981c44.95-6.226 90.034-.673 130.38 16.066a2 2 0 0 1 1.233 1.848v173.283a1.999 1.999 0 0 1-2 1.999zM832.616 327c3.439 0 6.787.908 9.673 3.021 9.38 6.878 7.794 19.368 5.787 35.181-1.854 14.61-4.163 32.795 2.059 51.566 3.255 9.819 9.284 18.75 16.816 25.042V273.918c-38.854-15.859-82.125-21.219-125.339-15.524v35.349h.025c8.764 0 17.394 5.012 21.535 12.726 4.115 7.662 3.678 16.415 3.257 24.881-.1 2.012-.204 4.093-.239 6.093-.224 12.021 3.808 20.921 10.787 23.812 6.478 2.686 14.544-.073 21.577-7.375 2.536-2.633 4.831-5.648 7.051-8.565 3.046-4.003 6.196-8.143 10.128-11.556 4.576-3.98 10.868-6.759 16.883-6.759z" fill="#1a1a1a"/></svg></g><g transform="translate(113.0 824.0) rotate(0.0 160.5 240.0) scale(1.0020102635817654 1.0012285909167709)"><svg width="320.356" height="479.411" viewBox="0 0 320.356 479.411"><path d="m201.623 422.596-63.796-18.522L254.552 2.025l63.797 18.522z" fill="#fece2f"/><g fill="#1a1a1a"><path d="M201.617 424.59c-.185 0-.372-.026-.559-.08l-63.799-18.523a2 2 0 0 1-1.363-2.478L252.636 1.443A2 2 0 0 1 255.114.08l63.799 18.523a2 2 0 0 1 1.363 2.478l-116.74 402.065a2 2 0 0 1-1.919 1.444zm-61.322-21.888 59.958 17.408L315.877 21.887 255.919 4.479z"/><path d="M279.416 11.219c-.185 0-.372-.026-.559-.08l-24.858-7.218a2 2 0 0 1 1.115-3.842l24.858 7.218a2 2 0 0 1-.556 3.922zm-5.56 19.146c-.185 0-.372-.026-.559-.08l-24.858-7.218a2 2 0 0 1 1.115-3.842l24.858 7.218a2 2 0 0 1-.556 3.922zm-5.559 19.145c-.185 0-.372-.026-.559-.08l-24.858-7.217a2 2 0 0 1-1.363-2.479 2.005 2.005 0 0 1 2.478-1.363l24.858 7.217a2 2 0 0 1-.556 3.922zm-5.559 19.147c-.185 0-.372-.026-.559-.08l-24.858-7.218a2 2 0 0 1-1.363-2.479 2.005 2.005 0 0 1 2.478-1.363l24.858 7.218a2 2 0 0 1-.556 3.922zm-5.559 19.145c-.185 0-.372-.026-.559-.08l-24.858-7.217a2 2 0 0 1 1.115-3.842l24.858 7.217a2 2 0 0 1-.556 3.922zm-5.559 19.147c-.185 0-.372-.026-.559-.08l-24.858-7.218a2 2 0 0 1 1.115-3.842l24.858 7.218a2 2 0 0 1-.556 3.922zm-5.559 19.145c-.185 0-.372-.026-.559-.08l-24.858-7.217a2 2 0 0 1 1.115-3.842l24.858 7.217a2 2 0 0 1-.556 3.922zm-5.559 19.147c-.185 0-.372-.026-.559-.08l-24.858-7.218a2 2 0 0 1 1.115-3.842l24.858 7.218a2 2 0 0 1-.556 3.922zm-5.559 19.145c-.185 0-.372-.026-.559-.08l-24.858-7.217a2 2 0 0 1 1.115-3.842l24.858 7.217a2 2 0 0 1-.556 3.922zm-5.559 19.147c-.185 0-.372-.026-.559-.08l-24.858-7.218a2 2 0 0 1 1.115-3.842l24.858 7.218a2 2 0 0 1-.556 3.922zm-5.559 19.145c-.185 0-.372-.026-.559-.08l-24.858-7.218a2 2 0 0 1 1.115-3.842l24.858 7.218a2 2 0 0 1-.556 3.922zm-5.559 19.146c-.185 0-.372-.026-.559-.08l-24.858-7.218a2 2 0 0 1 1.115-3.842l24.858 7.218a2 2 0 0 1-.556 3.922zm-5.559 19.146c-.185 0-.372-.026-.559-.08l-24.858-7.218a2 2 0 0 1 1.115-3.842l24.858 7.218a2 2 0 0 1-.556 3.922zm-5.559 19.146c-.185 0-.372-.026-.559-.08l-24.858-7.218a2 2 0 0 1 1.115-3.842l24.858 7.218a2 2 0 0 1-.556 3.922zm-5.559 19.146c-.185 0-.372-.026-.559-.08l-24.858-7.218a2 2 0 0 1 1.115-3.842l24.858 7.218a2 2 0 0 1-.556 3.922zm-5.559 19.146c-.185 0-.372-.026-.559-.08l-24.858-7.218a2 2 0 0 1 1.115-3.842l24.858 7.218a2 2 0 0 1-.556 3.922zm-5.559 19.146c-.185 0-.372-.026-.559-.08l-24.858-7.218a2 2 0 0 1 1.115-3.842l24.858 7.218a2 2 0 0 1-.556 3.922zm-5.559 19.146c-.185 0-.372-.026-.559-.08l-24.858-7.218a2 2 0 0 1-1.363-2.479 2.005 2.005 0 0 1 2.478-1.363l24.858 7.218a2 2 0 0 1-.556 3.922zm-5.559 19.146c-.185 0-.372-.026-.559-.08l-24.858-7.218a2 2 0 0 1-1.363-2.479 2.005 2.005 0 0 1 2.478-1.363l24.858 7.218a2 2 0 0 1-.556 3.922zm-5.559 19.145c-.185 0-.372-.026-.559-.08l-24.858-7.217a2 2 0 0 1 1.115-3.842l24.858 7.217a2 2 0 0 1-.556 3.922zm-5.559 19.147c-.185 0-.372-.026-.559-.08l-24.858-7.218a2 2 0 0 1 1.115-3.842l24.858 7.218a2 2 0 0 1-.556 3.922zm-5.559 19.145c-.185 0-.372-.026-.559-.08l-24.858-7.217a2 2 0 0 1 1.115-3.842l24.858 7.217a2 2 0 0 1-.556 3.922z"/></g><path d="m198.735 423.18-18.912 11.03 11.433 19.603a9 9 0 0 0 12.309 3.24l3.363-1.962a9 9 0 0 0 3.24-12.309z" fill="#fff"/><path d="M199.049 460.277c-3.788 0-7.479-1.955-9.521-5.456l-11.433-19.604a2.002 2.002 0 0 1 .72-2.736l18.912-11.029a2 2 0 0 1 2.735.72l11.433 19.603a10.931 10.931 0 0 1 1.136 8.343 10.928 10.928 0 0 1-5.096 6.701l-3.363 1.962a10.941 10.941 0 0 1-5.523 1.496zm-16.491-25.348 10.425 17.876c1.945 3.335 6.24 4.464 9.573 2.521l3.363-1.962c1.615-.942 2.767-2.456 3.243-4.265s.219-3.693-.723-5.309l-10.426-17.875z" fill="#1a1a1a"/><path d="m55.436 167.076-27.968 16.312 150.938 258.799a9 9 0 0 0 12.309 3.24l12.42-7.243a9 9 0 0 0 3.24-12.309z" fill="#fece2f"/><path d="M186.199 448.657c-.94 0-1.886-.121-2.819-.367a10.93 10.93 0 0 1-6.702-5.096L25.74 184.396a2 2 0 0 1 .72-2.735l27.968-16.312a1.988 1.988 0 0 1 1.517-.207c.513.136.951.469 1.219.927l150.938 258.799c3.056 5.24 1.279 11.988-3.96 15.044l-12.42 7.243a10.941 10.941 0 0 1-5.523 1.502zM30.203 184.108l149.931 257.07a6.952 6.952 0 0 0 4.265 3.243 6.944 6.944 0 0 0 5.308-.723l12.42-7.243c3.334-1.944 4.464-6.239 2.52-9.573L54.716 169.811z" fill="#1a1a1a"/><path d="m16.115 118.901-11.216 6.542 12.592 42.51c19.359 8.09 27.396 4.466 29.425-17.161z" fill="#fece2f"/><path d="M32.74 173.91c-4.215 0-9.432-1.359-16.021-4.112a1.998 1.998 0 0 1-1.146-1.277L2.98 126.011a2 2 0 0 1 .91-2.296l11.216-6.542a1.996 1.996 0 0 1 2.446.338l30.801 31.891a2 2 0 0 1 .553 1.576c-1.083 11.544-3.822 18.046-8.88 21.083-2.048 1.229-4.439 1.849-7.286 1.849zm-13.604-7.442c9.125 3.705 15.122 4.393 18.831 2.163 3.69-2.216 5.88-7.665 6.866-17.116l-29.067-30.096-8.505 4.96z" fill="#1a1a1a"/><path d="M4.898 125.443 2 107.587l14.115 11.314z" fill="#1a1a1a"/><path d="M4.898 127.443a1.999 1.999 0 0 1-1.975-1.679L.025 107.909a2 2 0 0 1 3.226-1.881l14.115 11.313a2.002 2.002 0 0 1-.243 3.288L5.906 127.17a2.003 2.003 0 0 1-1.008.273zm-.091-15.042 1.598 9.848 6.186-3.608zM91.122 222.74a51.53 51.53 0 0 1-32.775 19.115l-43.074-73.854a51.532 51.532 0 0 0 32.775-19.115l43.074 73.854z" fill="#1a1a1a"/><path d="M58.346 243.855a2 2 0 0 1-1.727-.992l-43.074-73.854a1.998 1.998 0 0 1 1.427-2.985 49.357 49.357 0 0 0 31.503-18.374 2.001 2.001 0 0 1 3.3.227l43.074 73.854a2 2 0 0 1-.155 2.243c-8.442 10.749-20.534 17.801-34.047 19.857-.1.016-.201.024-.301.024zm-39.905-74.392 40.939 70.193a49.332 49.332 0 0 0 29.32-17.101l-40.939-70.193a53.292 53.292 0 0 1-29.32 17.101z" fill="#1a1a1a"/><path d="m151.308 449.538-27.672 4.752L58.881 77.224a7 7 0 0 1 5.714-8.084l13.874-2.383a7 7 0 0 1 8.084 5.714z" fill="#fece2f"/><path d="M123.636 456.29a2 2 0 0 1-1.971-1.661L56.91 77.563a8.942 8.942 0 0 1 1.521-6.719 8.94 8.94 0 0 1 5.826-3.675l13.874-2.382a8.925 8.925 0 0 1 6.718 1.52 8.943 8.943 0 0 1 3.675 5.826l64.755 377.065a2 2 0 0 1-1.633 2.31l-27.672 4.753a1.92 1.92 0 0 1-.338.029zM79.666 68.656a5.08 5.08 0 0 0-.858.073l-13.875 2.382c-1.316.227-2.465.951-3.236 2.042s-1.071 2.417-.845 3.732l64.417 375.096 23.73-4.076L84.582 72.811a4.965 4.965 0 0 0-2.042-3.237 4.954 4.954 0 0 0-2.874-.918z" fill="#1a1a1a"/><path d="m90.249 93.993-27.672 4.752-3.696-21.521a7 7 0 0 1 5.714-8.084l13.874-2.383a7 7 0 0 1 8.084 5.714z" fill="#fece2f"/><path d="M62.574 100.745a2 2 0 0 1-1.969-1.661L56.91 77.563a8.942 8.942 0 0 1 1.521-6.719 8.94 8.94 0 0 1 5.826-3.675l13.874-2.382a8.925 8.925 0 0 1 6.718 1.52 8.943 8.943 0 0 1 3.675 5.826l3.696 21.521a1.999 1.999 0 0 1-1.633 2.309l-27.672 4.752c-.114.022-.228.03-.341.03zm17.092-32.089a5.08 5.08 0 0 0-.858.073l-13.875 2.382c-1.316.227-2.465.951-3.236 2.042s-1.071 2.417-.845 3.732l3.357 19.551 23.73-4.075-3.357-19.55a4.965 4.965 0 0 0-2.042-3.237 4.954 4.954 0 0 0-2.874-.918z" fill="#1a1a1a"/><path d="m62.583 98.745 27.673-4.754 6.166 35.9-27.672 4.754z" fill="#fff"/><path d="M68.742 136.645a2.006 2.006 0 0 1-1.972-1.661l-6.165-35.899a1.999 1.999 0 0 1 1.633-2.309l27.672-4.752a1.994 1.994 0 0 1 2.31 1.632l6.165 35.898a2 2 0 0 1-1.633 2.31l-27.672 4.753a2.131 2.131 0 0 1-.338.028zm-3.856-36.267 5.488 31.957 23.73-4.076-5.488-31.956z" fill="#1a1a1a"/><path d="M251.574 280.364V458.69c0 8.252-25.143 15.272-60.03 17.764-8.795.621-18.21.96-28.003.96-24.309 0-46.31-2.094-62.241-5.488-15.931-3.384-25.783-8.068-25.783-13.236V280.364z" fill="#fece2f"/><path d="M191.543 476.454c-8.795.621-18.21.96-28.003.96-24.309 0-46.31-2.094-62.241-5.488-15.931-3.384-25.783-8.068-25.783-13.236V280.364h11.306c5.343 9.105-5.391 27.072 6.099 43.954 9.881 14.515 31.862 17.667 22.631 51.585-3.908 14.38-19.538 50.169 3.452 57.596 4.344 1.406 8.96-.485 13.371.437 3.995.834 7.922 3.355 11.122 5.76 7.04 5.294 12.091 12.566 18.268 18.743 10.89 10.888 20.78 15.125 29.778 18.015z" fill="#fff"/><path d="M163.543 479.41c-23.648 0-45.902-1.963-62.66-5.526-18.159-3.86-27.366-8.972-27.366-15.191V280.364a2 2 0 0 1 2-2h176.057a2 2 0 0 1 2 2V458.69c0 .056-.002.11-.007.165-.159 6.146-9.364 11.202-27.364 15.029-16.759 3.564-39.012 5.526-62.66 5.526zM77.516 282.364V458.69c0 2.833 6.337 7.484 24.198 11.282 16.493 3.507 38.451 5.438 61.828 5.438s45.335-1.932 61.828-5.438c17.861-3.798 24.198-8.449 24.198-11.279 0-.046.001-.092.005-.137V282.364z" fill="#1a1a1a"/><path d="M253.171 268.474H73.914c-5.448 0-9.865 4.417-9.865 9.865s4.417 9.865 9.865 9.865h179.257c5.448 0 9.865-4.417 9.865-9.865s-4.417-9.865-9.865-9.865z" fill="#fece2f"/><path d="M253.171 290.204H73.914c-6.542 0-11.865-5.322-11.865-11.865s5.323-11.865 11.865-11.865h179.257c6.542 0 11.865 5.322 11.865 11.865s-5.322 11.865-11.865 11.865zm-179.257-19.73c-4.337 0-7.865 3.528-7.865 7.865s3.528 7.865 7.865 7.865h179.257c4.337 0 7.865-3.528 7.865-7.865s-3.528-7.865-7.865-7.865zm177.66 38.368v25.841a15.59 15.59 0 0 1-8.892 2.764c-8.669 0-15.689-7.02-15.689-15.679 0-8.669 7.02-15.688 15.689-15.688a15.565 15.565 0 0 1 8.892 2.762z" fill="#1a1a1a"/><path d="M242.682 339.447c-9.754 0-17.689-7.931-17.689-17.68 0-9.754 7.935-17.688 17.689-17.688 3.615 0 7.083 1.079 10.03 3.119a2 2 0 0 1 .861 1.645v25.841c0 .656-.322 1.271-.862 1.645a17.542 17.542 0 0 1-10.029 3.118zm0-31.369c-7.548 0-13.689 6.141-13.689 13.688 0 7.543 6.141 13.68 13.689 13.68 2.451 0 4.813-.64 6.892-1.858v-23.651a13.567 13.567 0 0 0-6.892-1.859z" fill="#1a1a1a"/><circle cx="163.543" cy="321.762" fill="#1a1a1a" r="15.683"/><path d="M163.543 339.446c-9.75 0-17.683-7.933-17.683-17.684 0-9.75 7.933-17.683 17.683-17.683s17.683 7.933 17.683 17.683c0 9.751-7.933 17.684-17.683 17.684zm0-31.367c-7.545 0-13.683 6.138-13.683 13.683s6.138 13.684 13.683 13.684 13.683-6.139 13.683-13.684-6.139-13.683-13.683-13.683zm-63.456 13.688c0 8.659-7.02 15.679-15.679 15.679a15.56 15.56 0 0 1-8.892-2.764v-25.841a15.558 15.558 0 0 1 8.892-2.764c8.659.001 15.679 7.021 15.679 15.69z" fill="#1a1a1a"/><path d="M84.408 339.447a17.534 17.534 0 0 1-10.03-3.119 2 2 0 0 1-.862-1.645v-25.841c0-.656.322-1.271.861-1.645a17.537 17.537 0 0 1 10.03-3.119c9.748 0 17.679 7.935 17.679 17.688.001 9.75-7.93 17.681-17.678 17.681zm-6.892-5.859a13.568 13.568 0 0 0 6.891 1.858c7.543 0 13.679-6.137 13.679-13.68 0-7.548-6.136-13.688-13.679-13.688-2.452 0-4.814.64-6.891 1.858zm174.058 90.088v25.841a15.582 15.582 0 0 1-8.892 2.764c-8.669 0-15.689-7.03-15.689-15.688 0-8.659 7.02-15.679 15.689-15.679a15.573 15.573 0 0 1 8.892 2.762z" fill="#1a1a1a"/><path d="M242.682 454.281c-9.754 0-17.689-7.935-17.689-17.688 0-9.749 7.935-17.68 17.689-17.68 3.614 0 7.082 1.078 10.03 3.119a2 2 0 0 1 .862 1.645v25.841c0 .656-.322 1.271-.862 1.645a17.548 17.548 0 0 1-10.03 3.118zm0-31.369c-7.548 0-13.689 6.137-13.689 13.68 0 7.548 6.141 13.688 13.689 13.688 2.451 0 4.813-.64 6.892-1.858v-23.651a13.573 13.573 0 0 0-6.892-1.859z" fill="#1a1a1a"/><circle cx="163.543" cy="436.593" fill="#1a1a1a" r="15.683"/><path d="M163.543 454.276c-9.75 0-17.683-7.933-17.683-17.683s7.933-17.683 17.683-17.683 17.683 7.933 17.683 17.683-7.933 17.683-17.683 17.683zm0-31.366c-7.545 0-13.683 6.138-13.683 13.683s6.138 13.683 13.683 13.683 13.683-6.138 13.683-13.683-6.139-13.683-13.683-13.683zm-63.456 13.682c0 8.659-7.02 15.688-15.679 15.688a15.56 15.56 0 0 1-8.892-2.764v-25.841a15.566 15.566 0 0 1 8.892-2.764c8.659.001 15.679 7.022 15.679 15.681z" fill="#1a1a1a"/><path d="M84.408 454.281a17.534 17.534 0 0 1-10.03-3.119 2 2 0 0 1-.862-1.645v-25.841c0-.656.322-1.271.862-1.645a17.541 17.541 0 0 1 10.03-3.119c9.748 0 17.679 7.931 17.679 17.68 0 9.754-7.931 17.689-17.679 17.689zm-6.892-5.859a13.568 13.568 0 0 0 6.891 1.858c7.543 0 13.679-6.141 13.679-13.688 0-7.543-6.136-13.68-13.679-13.68-2.451 0-4.813.64-6.891 1.858z" fill="#1a1a1a"/><circle cx="202.665" cy="377.411" fill="#1a1a1a" r="15.683"/><path d="M202.666 395.094c-9.75 0-17.683-7.933-17.683-17.683s7.933-17.683 17.683-17.683 17.683 7.933 17.683 17.683-7.933 17.683-17.683 17.683zm0-31.365c-7.545 0-13.683 6.138-13.683 13.683s6.138 13.683 13.683 13.683 13.683-6.138 13.683-13.683-6.139-13.683-13.683-13.683z" fill="#1a1a1a"/><circle cx="123.53" cy="377.411" fill="#1a1a1a" r="15.683"/><path d="M123.53 395.094c-9.75 0-17.683-7.933-17.683-17.683s7.933-17.683 17.683-17.683 17.683 7.933 17.683 17.683-7.933 17.683-17.683 17.683zm0-31.365c-7.545 0-13.683 6.138-13.683 13.683s6.138 13.683 13.683 13.683 13.683-6.138 13.683-13.683-6.138-13.683-13.683-13.683z" fill="#1a1a1a"/></svg></g><g transform="translate(233.0 1249.0) rotate(0.0 169.0 32.0) scale(1.0034348346262205 1.0120977306871195)"><svg width="336.843" height="63.235" viewBox="0 0 336.843 63.235"><path d="M35.642 30.04c71.896-14.407 218.82-14.443 290.892 0 11.065 2.217 11.094 18.125 0 20.362-72.105 14.449-218.838 14.439-290.892 0-11.065-2.217-11.093-18.125 0-20.362z" fill="#fece2f"/><path d="M181.086 63.22c-54.86 0-109.719-3.619-145.837-10.857-6.846-1.371-9.913-7.083-9.917-12.135s3.061-10.767 9.914-12.149h.002c72.237-14.476 219.439-14.476 291.678 0 6.846 1.372 9.913 7.084 9.916 12.136.003 5.051-3.061 10.766-9.914 12.148-36.119 7.238-90.981 10.857-145.842 10.857zM36.035 32.001c-4.95 1-6.705 5.056-6.703 8.225.002 3.171 1.759 7.226 6.702 8.216 71.847 14.397 218.256 14.399 290.106 0 4.949-.998 6.704-5.055 6.702-8.224-.002-3.171-1.758-7.226-6.702-8.217-71.848-14.398-218.257-14.398-290.105 0z" fill="#1a1a1a"/><path d="m51.62 27.278-37.036 6.767v12.78l37.036 6.368c4.16-8.883 4.16-17.521 0-25.915z" fill="#fff"/><g fill="#1a1a1a"><path d="M51.621 55.192c-.112 0-.226-.01-.34-.029l-37.036-6.367a2 2 0 0 1-1.661-1.971v-12.78a2 2 0 0 1 1.641-1.968l37.036-6.767a2.008 2.008 0 0 1 2.151 1.08c4.424 8.928 4.431 18.23.019 27.65a2 2 0 0 1-1.81 1.152zM16.584 45.139l33.84 5.817c3.096-7.389 3.109-14.429.037-21.434l-33.877 6.189zm146.291 17.962a2 2 0 0 1-1.552-3.26c8.876-10.927 7.719-32.238.214-38.999a2 2 0 1 1 2.678-2.972c4.36 3.928 7.089 11.632 7.301 20.608.221 9.362-2.362 18.068-7.087 23.885a1.997 1.997 0 0 1-1.554.738z"/><path d="M14.584 35.984 2 40.228l12.584 4.657z"/><path d="M14.584 46.885c-.234 0-.469-.041-.694-.124L1.306 42.104a2 2 0 0 1 .055-3.771l12.584-4.244a2 2 0 0 1 2.639 1.896v8.901c0 .654-.32 1.268-.857 1.642-.34.235-.74.357-1.143.357zm-6.585-6.569 4.585 1.696v-3.243zm298.798-12.102-10.186-11.681-.635-.727-.594-.65a22.17 22.17 0 0 0-10.465-6.15c-1.128-.298-2.257-.472-3.567-.663-1.266-.183-2.526-.396-3.795-.551-2.533-.35-5.072-.642-7.613-.918a235.559 235.559 0 0 0-15.288-1.071c-10.204-.378-20.427-.1-30.543.967l-3.787.439-3.713.508a9.136 9.136 0 0 0-2.711.933l-3.371 1.822-1.705.922a15.663 15.663 0 0 1-7.038 1.858l-7.798.09a3.393 3.393 0 0 1-.079-6.783h.079l7.699.084a9.122 9.122 0 0 0 4.122-.984l1.723-.882 3.488-1.784a15.429 15.429 0 0 1 4.624-1.462l3.975-.456 3.919-.365c10.458-.865 20.948-.913 31.379-.292a240.05 240.05 0 0 1 15.599 1.445c2.588.34 5.173.697 7.75 1.112 1.291.188 2.573.433 3.86.648 1.241.208 2.665.458 4.026.853a26.72 26.72 0 0 1 10.964 6.189c.516.481 1.006.988 1.485 1.504l.695.796.623.746 9.92 11.907a2 2 0 0 1-3.042 2.596z"/></g></svg></g><g transform="translate(707.0 1106.0) rotate(0.0 329.0 133.5) scale(1.0088156381755462 1.0103418133932727)"><svg width="652.25" height="264.267" viewBox="0 0 652.25 264.267"><g fill="#1a1a1a"><path d="M161.681 83.943c-8.284 28.042-8.284 64.498 2.355 84.718 23.138-6.297 58.06 16.602 78.383 44.268 44.368-31.101 143.408-35.108 220.121-2.476 10.995-25.762 12.595-67.553 4.007-102.761-29.1-1.985-304.866-23.749-304.866-23.749z"/><path d="M242.42 214.929a1.996 1.996 0 0 1-1.613-.816c-18.924-25.76-53.455-49.729-76.246-43.522a2.004 2.004 0 0 1-2.295-.998c-10.38-19.729-11.433-55.987-2.503-86.216a2.015 2.015 0 0 1 2.075-1.428c2.757.218 276.088 21.787 304.845 23.747.87.059 1.601.675 1.807 1.521 8.762 35.926 7.11 77.729-4.111 104.021a2.003 2.003 0 0 1-2.622 1.056c-36.125-15.367-79.225-23.342-121.367-22.503-40.237.817-75.528 9.849-96.824 24.776a1.992 1.992 0 0 1-1.146.362zm-70.199-49.301c9.765 0 21.191 3.662 33.082 10.711 13.788 8.174 27.389 20.445 37.571 33.857 22.062-14.718 57.409-23.591 97.436-24.404 41.971-.85 84.902 6.965 121.149 22.036 9.912-24.967 11.346-64.759 3.486-98.243-34.036-2.402-279.33-21.747-301.794-23.52-7.979 28.292-7.158 61.443 1.957 80.279 2.249-.479 4.627-.716 7.113-.716z"/><path d="m643.979 66.774-248.87 72.891L2 49.283l41.601-6.714L295.119 2l174.786 32.451z"/><path d="M395.109 141.665c-.15 0-.301-.017-.448-.051L1.552 51.232a2 2 0 0 1 .129-3.924L294.801.025c.226-.036.458-.035.683.008l348.86 64.774a2 2 0 0 1 .197 3.886l-248.87 72.891a2.02 2.02 0 0 1-.562.081zM12.422 49.627l382.627 87.972 240.325-70.388L295.095 4.029z"/><path d="M579.268 199.322c-18.411 0-33.247-9.612-35.362-22.969-.791-5-.96-22.072 30.091-31.866 14.833-4.679 23.514-15.021 22.656-26.991-1.097-15.306-17.089-27.701-40.743-31.579a2 2 0 1 1 .647-3.947c13.222 2.167 24.336 6.837 32.14 13.503 7.135 6.095 11.378 13.815 11.946 21.738.997 13.913-8.752 25.826-25.443 31.091-28.001 8.832-28.008 23.226-27.343 27.427 1.79 11.307 15.484 19.705 31.823 19.592h.017a2.001 2.001 0 0 1 .017 4l-.446.001z"/></g><path d="M579.697 197.32c2.914 24.98 62.449 12.906 45.796 64.947 40.879-30.808 25.888-80.352-7.078-88.262-24.425-5.861-40.744 5.946-38.718 23.315z" fill="#fece2f"/><path d="M625.494 264.267a2 2 0 0 1-1.905-2.609c9.64-30.124-7.2-37.307-23.484-44.253-10.866-4.635-21.129-9.013-22.394-19.854-.921-7.897 1.662-14.989 7.275-19.969 7.699-6.83 20.055-8.843 33.897-5.521 16.022 3.844 28.709 17.547 32.322 34.91 4.328 20.797-4.834 42.065-24.507 56.894-.356.267-.78.402-1.204.402zm-43.81-67.179c.996 8.534 9.798 12.289 19.99 16.637 15.209 6.487 33.898 14.46 27.419 42.995 15.07-13.534 21.834-31.452 18.196-48.935-3.299-15.854-14.816-28.351-29.339-31.836-12.554-3.01-23.601-1.325-30.309 4.625-4.607 4.088-6.723 9.952-5.957 16.514z" fill="#1a1a1a"/><path d="M625.492 264.267a2 2 0 0 1-1.666-3.103c12.088-18.261 14.602-35.992 6.898-48.648a2 2 0 0 1 3.416-2.08c8.544 14.035 6 33.329-6.979 52.936a1.996 1.996 0 0 1-1.669.895z" fill="#1a1a1a"/><path d="M395.105 141.665c-.145 0-.291-.016-.433-.048L160.215 89.595a2 2 0 0 1-1.519-2.386 1.993 1.993 0 0 1 2.386-1.519l233.955 51.91 71.615-20.976a2 2 0 1 1 1.125 3.837l-72.109 21.12a1.93 1.93 0 0 1-.563.084zm74.8-107.214c-7.395 4.15-17.491 7.065-30.865 7.693-55.73 2.617-103.757-21.449-131.898-14.172-6.714 1.734-12.906 4.99-19.396 7.416-45.771 17.151-98.235-8.842-145.325 4.235-12.374 3.437-24.024 9.512-36.696 11.576-20.779 3.373-41.452-4.32-62.124-8.629L295.119 2z" fill="#fece2f"/><path d="M95.08 54.024c-12.646 0-25.212-3.101-37.458-6.121-4.735-1.168-9.632-2.376-14.429-3.376a2 2 0 0 1 .089-3.933L294.801.025c.227-.036.458-.035.684.008L470.27 32.484a2 2 0 0 1 .614 3.711c-8.33 4.675-19.013 7.348-31.75 7.946-28.726 1.347-55.048-4.249-78.269-9.187-21.417-4.554-39.914-8.485-53.222-5.047-4.19 1.082-8.124 2.758-12.29 4.533-2.244.956-4.565 1.944-6.907 2.819-24.443 9.16-51.005 6.212-76.692 3.361-22.993-2.554-46.769-5.19-68.798.927-4.848 1.347-9.701 3.148-14.394 4.892-7.227 2.684-14.699 5.459-22.515 6.731-3.657.595-7.317.854-10.967.854zM54.054 42.909c1.52.369 3.03.741 4.525 1.11 15.391 3.797 31.307 7.722 46.825 5.204 7.43-1.21 14.717-3.916 21.764-6.533 4.771-1.771 9.705-3.604 14.716-4.995 22.774-6.325 46.94-3.643 70.31-1.049 25.221 2.799 51.299 5.693 74.849-3.132 2.259-.844 4.538-1.814 6.741-2.754 4.118-1.754 8.376-3.568 12.856-4.726 14.219-3.675 33.144.348 55.056 5.008 22.984 4.887 49.032 10.43 77.249 9.103 9.469-.444 17.701-2.071 24.562-4.848L295.095 4.029z" fill="#1a1a1a"/></svg></g></svg>